<svg aria-hidden="true" style="width:0;height:0;position:absolute;overflow:hidden" xmlns="http://www.w3.org/2000/svg"><defs><symbol id="icon-up" viewBox="0 0 32 32"><path d="M16 32c8.836 0 16-7.164 16-16 0-8.837-7.164-16-16-16C7.163 0 0 7.163 0 16c0 8.836 7.163 16 16 16zm0-24 8 8h-6v8h-4v-8H8l8-8z"/></symbol><symbol id="search" viewBox="0 0 32 32"><path d="M31.715 28.953a.977.977 0 0 1 0 1.381l-1.381 1.381a.977.977 0 0 1-1.381 0l-9.668-9.668a.954.954 0 0 1-.222-.361A11.925 11.925 0 0 1 12 24C5.373 24 0 18.627 0 12S5.373 0 12 0s12 5.373 12 12c0 2.645-.865 5.08-2.314 7.063a.942.942 0 0 1 .361.222l9.668 9.668zM12 4a8 8 0 1 0 0 16 8 8 0 0 0 0-16z"/></symbol></defs></svg>